<svg width="30" height="26" viewBox="0 0 30 26" fill="none" xmlns="http://www.w3.org/2000/svg">
<path d="M5.66675 18.3333H3.00008C2.64646 18.3333 2.30732 18.4738 2.05727 18.7239C1.80722 18.9739 1.66675 19.313 1.66675 19.6667V20.3333C1.66675 20.687 1.80722 21.0261 2.05727 21.2761C2.30732 21.5262 2.64646 21.6667 3.00008 21.6667H4.33341C4.68704 21.6667 5.02618 21.8071 5.27622 22.0572C5.52627 22.3072 5.66675 22.6464 5.66675 23V23.6667C5.66675 24.0203 5.52627 24.3594 5.27622 24.6095C5.02618 24.8595 4.68704 25 4.33341 25H1.66675M28.3334 18.3333V25L23.6667 18.3333V25M10.3334 18.3333H11.6667C12.0204 18.3333 12.3595 18.4738 12.6096 18.7239C12.8596 18.9739 13.0001 19.313 13.0001 19.6667V23.6667C13.0001 24.0203 12.8596 24.3594 12.6096 24.6095C12.3595 24.8595 12.0204 25 11.6667 25H10.3334C9.97979 25 9.64065 24.8595 9.39061 24.6095C9.14056 24.3594 9.00008 24.0203 9.00008 23.6667V19.6667C9.00008 19.313 9.14056 18.9739 9.39061 18.7239C9.64065 18.4738 9.97979 18.3333 10.3334 18.3333ZM17.6667 18.3333H19.0001C19.3537 18.3333 19.6928 18.4738 19.9429 18.7239C20.1929 18.9739 20.3334 19.313 20.3334 19.6667V23.6667C20.3334 24.0203 20.1929 24.3594 19.9429 24.6095C19.6928 24.8595 19.3537 25 19.0001 25H17.6667C17.3131 25 16.974 24.8595 16.7239 24.6095C16.4739 24.3594 16.3334 24.0203 16.3334 23.6667V19.6667C16.3334 19.313 16.4739 18.9739 16.7239 18.7239C16.974 18.4738 17.3131 18.3333 17.6667 18.3333ZM21.6667 7.66667C21.6667 5.89856 20.9644 4.20286 19.7141 2.95262C18.4639 1.70238 16.7682 1 15.0001 1C13.232 1 11.5363 1.70238 10.286 2.95262C9.03579 4.20286 8.33341 5.89856 8.33341 7.66667C8.33341 9.43478 9.03579 11.1305 10.286 12.3807C11.5363 13.631 13.232 14.3333 15.0001 14.3333C16.7682 14.3333 18.4639 13.631 19.7141 12.3807C20.9644 11.1305 21.6667 9.43478 21.6667 7.66667Z" stroke="white" stroke-width="2" stroke-linecap="round" stroke-linejoin="round"/>
<path d="M17 8.33337L15 7.66671V4.33337" stroke="white" stroke-width="2" stroke-linecap="round" stroke-linejoin="round"/>
</svg>
